HIERARCHY
ROOT Hips
{
  OFFSET 34.0425 94 25.1896
  CHANNELS 6 Xposition Yposition Zposition Zrotation Xrotation Yrotation
  JOINT ToSpine
  {
    OFFSET -0.0105055 1.38907 -7.13956
    CHANNELS 3 Zrotation Xrotation Yrotation
    JOINT Spine
    {
      OFFSET 0.0105055 10 1
      CHANNELS 3 Zrotation Xrotation Yrotation
      JOINT Spine1
      {
        OFFSET 0 12 1.60637
        CHANNELS 3 Zrotation Xrotation Yrotation
        JOINT Neck
        {
          OFFSET 0 27 2.26658
          CHANNELS 3 Zrotation Xrotation Yrotation
          JOINT Head
          {
            OFFSET 0 9 2.12705
            CHANNELS 3 Zrotation Xrotation Yrotation
            End Site
            {
              OFFSET 0 11 2
            }
          }
        }
        JOINT LeftShoulder
        {
          OFFSET 8 19.6109 2.86452
          CHANNELS 3 Zrotation Xrotation Yrotation
          JOINT LeftArm
          {
            OFFSET 12 1 0.681055
            CHANNELS 3 Zrotation Xrotation Yrotation
            JOINT LeftForeArm
            {
              OFFSET 19 0 -1.52608
              CHANNELS 3 Zrotation Xrotation Yrotation
              JOINT LeftHand
              {
                OFFSET 23 0 0
                CHANNELS 3 Zrotation Xrotation Yrotation
                End Site
                {
                  OFFSET 10 0 0
                }
              }
            }
          }
        }
        JOINT RightShoulder
        {
          OFFSET -8 19.6109 2.86452
          CHANNELS 3 Zrotation Xrotation Yrotation
          JOINT RightArm
          {
            OFFSET -12 1 0.681055
            CHANNELS 3 Zrotation Xrotation Yrotation
            JOINT RightForeArm
            {
              OFFSET -19 0 -1.52608
              CHANNELS 3 Zrotation Xrotation Yrotation
              JOINT RightHand
              {
                OFFSET -23 0 0
                CHANNELS 3 Zrotation Xrotation Yrotation
                End Site
                {
                  OFFSET -10 0 0
                }
              }
            }
          }
        }
      }
    }
  }
  JOINT LeftUpLeg
  {
    OFFSET 9 -7.17245 0
    CHANNELS 3 Zrotation Xrotation Yrotation
    JOINT LeftLeg
    {
      OFFSET 0 -44.1113 0
      CHANNELS 3 Zrotation Xrotation Yrotation
      JOINT LeftFoot
      {
        OFFSET 0 -36.1829 0
        CHANNELS 3 Zrotation Xrotation Yrotation
        JOINT LeftToeBase
        {
          OFFSET 0 -4.84184 13
          CHANNELS 3 Zrotation Xrotation Yrotation
          End Site
          {
            OFFSET 0 1 6
          }
        }
      }
    }
  }
  JOINT RightUpLeg
  {
    OFFSET -9 -7.17245 0
    CHANNELS 3 Zrotation Xrotation Yrotation
    JOINT RightLeg
    {
      OFFSET 0 -44.0551 0
      CHANNELS 3 Zrotation Xrotation Yrotation
      JOINT RightFoot
      {
        OFFSET 0 -36.1469 0
        CHANNELS 3 Zrotation Xrotation Yrotation
        JOINT RightToeBase
        {
          OFFSET 0 -4.92256 13
          CHANNELS 3 Zrotation Xrotation Yrotation
          End Site
          {
            OFFSET 0 1 6
          }
        }
      }
    }
  }
}
MOTION
Frames:	13
Frame Time:	0.0416667
25.7486 95.17 25.2445 -3.29161 -16.5777 1.28286 -1.98785e-16 -6.36111e-15 5.96354e-16 9.37788 -16.04 1.23426 4.77743 28.7409 -2.99626 7.18577 48.47 7.93318 -11.6 -5.33904 16.3793 -34.3605 3.96094 -6.27645 -47.1622 28.6465 -2.22092 -5.34049 -9.77419 -7.95387 -10.3153 0.24166 -2.68062 29.9594 7.50703 17.1406 42.5232 15.6082 -7.23459 3.74692 -4.61205 13.633 2.54224 0.085929 3.855 13.2688 2.59984 5.8957 0.00123479 39.7203 -22.8858 6.72131 -26.4398 1.58045 0.51638 -0.144494 -2.13584 8.00327 16.4494 -6.51598 4.03417 9.78144 -1.49764 -35.9462 -8.16553 -2.64571 4.79039 -20.7151 -13.2876 
26.1319 95.2939 25.4047 -2.55948 -16.8149 2.24157 -4.96962e-16 6.36111e-15 -1.19271e-15 10.5255 -16.016 1.63762 2.89759 28.6787 -1.86128 6.17692 48.7316 8.76389 -12.1335 -5.32892 16.6896 -34.1759 3.94437 -6.28028 -47.7311 28.4321 -1.01256 -5.31271 -10.9093 -8.47109 -11.5514 0.276868 -2.73236 30.3388 7.63727 17.2809 42.576 16.4015 -7.27801 3.99663 -5.21438 13.7662 2.33233 0.0829399 4.07189 12.4588 3.07183 5.95641 -0.000185097 39.0308 -23.4533 7.39772 -25.8229 1.69769 0.561167 -0.551488 -2.24425 7.33358 16.5364 -6.8746 3.64044 10.5156 -1.91398 -34.3889 -9.52819 -2.95582 4.59846 -19.2809 -12.5389 
26.4497 95.3423 25.5398 -2.19375 -16.9047 2.92642 -1.98785e-16 -6.36111e-15 1.19271e-15 11.3929 -15.9165 2.07767 1.99387 28.4611 -1.13532 4.1689 49.0128 10.2565 -12.4052 -5.62721 16.9239 -34.9112 4.03207 -6.31493 -48.1165 27.1456 0.16493 -4.9899 -10.473 -8.70365 -12.2666 0.299728 -2.78927 30.2512 7.66217 17.3966 42.6705 16.6866 -7.28794 3.8946 -4.67928 13.7133 2.06428 0.0739913 4.10621 12.1766 3.17298 6.16915 9.90768e-05 38.9266 -24.3362 7.20897 -25.8424 1.65555 0.579691 0.0190147 -2.43911 7.11093 16.6233 -6.90222 3.37262 10.7014 -2.5443 -34.4115 -9.75984 -3.02894 4.5518 -18.9539 -12.426 
26.785 95.352 25.667 -1.70777 -16.9684 3.75209 -5.96354e-16 0 -1.19271e-15 12.1937 -15.9203 2.4561 0.95791 28.6596 -0.472526 1.96344 48.6816 12.1235 -12.2279 -5.82817 17.3046 -35.4026 4.09374 -6.34656 -48.4874 27.3253 0.912502 -4.78803 -9.45148 -9.23894 -11.9463 0.280518 -2.67924 30.1138 7.72868 17.652 42.9078 16.6851 -7.47063 4.02092 -5.65846 14.21 2.04233 0.0705801 3.94798 11.6852 3.21914 6.25426 -9.28686e-05 38.8428 -24.9818 7.8821 -25.5371 1.78909 0.475197 -0.714858 -1.8531 6.61147 16.7313 -7.28381 3.51962 10.8615 -3.01995 -35.2919 -9.76518 -3.11307 4.60744 -19.261 -12.3147 
27.2064 95.3796 25.8161 -0.916373 -17.2501 4.97141 0 0 -0 11.9758 -15.3445 2.43862 0.915493 28.6363 -0.335564 -0.545328 48.2526 14.1342 -12.0623 -6.75316 17.5881 -36.1677 4.03553 -6.02515 -48.1188 28.5635 0.893152 -4.96672 -9.74287 -9.57159 -11.1027 0.252637 -2.59966 29.7832 7.69469 17.7471 43.032 16.8988 -7.49045 4.09215 -6.2384 14.5903 2.47143 0.0785814 3.65192 10.7848 3.49792 5.77784 0.000901817 38.6416 -25.3323 8.05133 -25.3802 1.81528 0.716634 0.373412 -3.05448 5.89314 17.1649 -7.87365 3.47673 10.991 -3.35941 -35.2534 -9.94722 -3.16732 4.61105 -19.3294 -12.463 
27.621 95.4468 25.9326 -0.476909 -17.2311 5.99683 -5.96354e-16 6.36111e-15 -1.59028e-15 12.4383 -14.8373 2.53427 0.430705 28.543 -0.0271649 -3.13728 47.1899 16.1561 -11.9035 -7.06607 17.8786 -36.9572 4.03039 -5.83481 -47.3607 29.3043 1.0195 -4.99429 -10.5392 -10.3087 -11.0526 0.236101 -2.44025 29.28 7.55 17.6412 43.2113 16.7886 -7.16787 4.06314 -5.80945 14.1794 3.54836 0.112316 3.63776 10.2519 3.42044 5.59133 -0.000638412 38.5349 -25.6491 8.23998 -25.2372 1.84734 0.807407 0.754224 -3.49602 5.51001 17.3603 -8.14199 3.38313 10.8751 -3.99398 -34.5862 -10.2433 -3.19689 4.59114 -19.0458 -11.915 
28.0467 95.5211 25.9612 -0.325705 -16.8105 6.6104 0 0 -0 13.5335 -14.7103 2.8678 -0.898243 29.013 0.673888 -4.2416 45.5821 17.1526 -12.5421 -7.30957 18.2595 -36.2633 4.00384 -5.92921 -47.5748 27.8177 0.186179 -4.71548 -9.72459 -10.0406 -11.0656 0.249779 -2.57755 29.429 7.55348 17.5658 43.1872 17.143 -6.80751 4.17923 -6.08863 14.2278 2.0716 0.071376 3.9311 10.0491 2.93139 6.18059 0.000235386 38.4695 -26.6477 9.12207 -24.6327 1.99612 0.797283 0.024323 -3.34529 5.1541 17.0878 -8.27347 3.47241 10.6516 -4.20178 -34.2698 -10.042 -3.10134 4.58332 -18.9239 -11.6758 
28.5641 95.693 26.0507 0.12056 -16.441 7.19051 3.97569e-16 6.36111e-15 -0 14.1554 -14.245 3.07374 -1.69388 29.2266 1.25982 -6.40262 43.9974 18.6682 -12.5168 -7.81917 18.3915 -36.8397 4.07367 -5.96534 -46.4005 26.2356 -0.491579 -4.84559 -11.8348 -9.86072 -11.2753 0.280145 -2.84212 29.7093 7.59589 17.5223 42.5958 17.2731 -6.75719 4.47298 -7.03293 14.1961 2.4675 0.0836231 3.88004 9.34497 2.88675 6.43958 0.00045741 37.7779 -27.0978 9.08381 -24.2574 1.95567 0.945006 1.18607 -4.10356 4.63605 16.8409 -8.24162 2.88018 10.7201 -4.54701 -32.3131 -10.8437 -3.15176 4.42894 -17.8001 -10.6241 
29.0402 95.7499 26.072 0.598512 -16.0429 7.65785 -0 0 7.95139e-16 13.8283 -13.1106 2.96006 -1.48836 28.7296 1.18809 -9.14294 42.0752 20.5732 -12.9481 -7.94113 18.7247 -37.2031 3.94675 -5.58729 -45.9602 23.8251 -0.667849 -4.46576 -11.5394 -10.1784 -10.7204 0.321057 -3.41803 29.2126 7.60856 17.8369 42.7166 17.8217 -6.69685 4.55506 -7.08048 14.1202 2.35731 0.0856403 4.14874 8.83907 2.65641 7.57168 -0.00382875 37.4921 -28.4787 9.80828 -23.5723 2.05129 0.929944 0.596159 -3.97655 3.98029 16.6954 -8.39345 2.90187 10.2339 -4.78699 -34.0144 -9.79065 -2.98962 4.63246 -19.1324 -11.5315 
29.5552 95.8361 26.0604 0.908919 -15.3866 7.96469 -5.29669e-31 -6.36111e-15 -4.77083e-15 14.2036 -12.3147 3.11017 -1.94767 28.5101 1.56569 -11.3481 40.2117 22.0684 -13.1401 -8.47424 18.972 -37.4719 3.92505 -5.48164 -44.9262 22.2696 -1.19781 -4.31545 -12.0652 -10.699 -9.75897 0.260111 -3.0441 28.0741 7.25231 17.5051 43.4293 16.7298 -5.80295 3.49589 -3.44303 13.6379 2.10593 0.0678077 3.59278 8.52882 2.18145 9.12513 0.00106485 37.1341 -29.9834 10.1102 -23.0351 2.06514 1.03806 0.923747 -4.45796 3.37091 16.1129 -8.43966 2.88293 10.0424 -5.21925 -35.608 -9.22018 -2.96688 4.77116 -19.991 -11.5613 
30.1 95.9265 26.1431 1.56405 -14.7197 8.33801 3.97569e-16 3.18055e-15 -0 14.8245 -11.7708 3.16914 -3.93142 28.5352 2.38043 -11.9031 38.607 22.5513 -14.0293 -8.71651 19.3293 -36.7767 3.94066 -5.66669 -44.1154 20.073 -2.36578 -3.93559 -11.6982 -9.40736 -9.1156 0.269516 -3.38247 28.5315 7.38493 17.6184 43.1791 16.7032 -5.29012 3.7781 -3.92385 13.1738 3.94574 0.136936 3.9464 7.62767 1.92401 10.1668 -0.000420054 36.4983 -31.1593 10.5696 -22.2291 2.08256 1.00268 0.653297 -4.28354 2.42577 15.7713 -8.57671 2.81594 9.53515 -5.24091 -37.2286 -8.06541 -2.72224 4.98159 -21.6354 -12.5465 
30.678 96.058 26.1699 2.17042 -14.0256 8.74431 -7.95139e-16 0 -0 14.7556 -10.972 2.94555 -4.40127 27.9219 2.45251 -14.1448 37.0667 24.1012 -14.0612 -9.13249 19.673 -37.3024 3.96693 -5.61252 -42.3953 20.2536 -3.14771 -4.06892 -12.1271 -9.20083 -9.28114 0.23021 -2.83437 27.8189 7.39607 18.0698 43.8608 16.4252 -4.93157 3.76074 -3.55481 12.699 2.44642 0.0942526 4.1219 6.66499 1.61402 10.8444 0.000315218 35.8458 -31.7735 10.6227 -21.8899 2.05917 1.11739 1.62155 -4.84479 1.42671 15.2245 -8.84011 2.68187 9.48929 -5.00051 -37.3286 -7.8057 -2.63966 4.96516 -21.6783 -12.8913 
31.0975 96.139 26.2118 2.41698 -13.5415 9.08726 1.76556e-31 3.18055e-15 -3.18055e-15 14.6838 -9.95853 2.79036 -4.80831 27.8014 2.54694 -15.015 34.613 24.7812 -14.5204 -9.31777 20.089 -37.0911 3.93122 -5.57655 -40.9143 19.6565 -4.87859 -4.0381 -11.8813 -7.86968 -8.75289 0.248259 -3.24033 27.9737 7.38 17.9317 43.4959 17.2739 -4.22093 4.12533 -4.49322 12.7934 3.0372 0.119243 4.3538 6.17848 1.35416 11.268 -0.000353974 35.4229 -32.3716 11.1172 -21.3513 2.10234 1.11398 1.49535 -4.82182 0.988431 15.0717 -8.85354 2.64907 8.91418 -4.95956 -37.7323 -7.35101 -2.51528 4.89851 -21.5842 -13.5924 
